<svg xmlns="http://www.w3.org/2000/svg" width="585" height="405" preserveAspectRatio="xMidYMid meet" version="1.0" viewBox="0 0 585 405"><g fill="#fff"><path d="M271 404 c0 -0.5 -0.8 -1 -1.8 -1 -2.6 0 -11.9 -8.2 -16.3 -14.4 -4.1 -5.8 -8.1 -13.9 -9.8 -20.1 -2.6 -9.4 -0.8 -22.3 4.3 -30.9 2.5 -4.3 3.6 -5.6 11.9 -15 2.8 -3.3 6 -7.1 6.9 -8.5 0.9 -1.4 3.3 -4.4 5.3 -6.6 4 -4.5 15.5 -21 19.7 -28.3 2.7 -4.7 2.7 -4.8 2.7 -24.7 0 -22.6 -1.4 -64.8 -2.5 -71.2 -0.3 -2.4 -1.2 -4.3 -1.8 -4.3 -0.6 0 -3.6 5.1 -6.6 11.2 -9.9 20.2 -17.3 29.8 -23 29.8 -6.1 0 -19.1 -7.7 -26.7 -15.9 -4.9 -5.3 -7.2 -9.8 -9.9 -19.4 -1 -3.7 -2.3 -6.6 -2.9 -6.4 -1 0.4 -1.9 2.7 -7.5 18.2 -3.8 10.8 -6.3 17.2 -8.5 22 -1 2.2 -2.6 6 -3.7 8.5 -1.1 2.5 -2.4 5.4 -3.1 6.5 -0.6 1.1 -1.6 3.1 -2.3 4.5 -1.5 3 -6.2 7.4 -8.6 8.3 -1.9 0.7 -10.1 -4.4 -14.6 -9 -7.1 -7.3 -11.1 -14.1 -14.1 -23.7 -4 -12.8 -2.6 -51.7 3.5 -98.1 2.7 -20.4 7.5 -52.3 9.9 -64.5 0.7 -4.1 2.1 -11.5 3 -16.5 0.9 -4.9 2.3 -11.9 3.1 -15.5 0.8 -3.6 1.7 -7.5 1.9 -8.7 0.8 -3.7 3.8 -4.6 8.7 -2.6 8.6 3.3 18 11.5 20.6 17.9 1.3 3.1 0.9 7 -3.2 27.4 -1.5 7.8 -6.6 34.5 -9.1 48.5 -2.1 11.7 -8.2 49.7 -9.5 59 -0.6 4.4 -1.5 10.9 -2 14.5 -2.8 19.3 -4.3 41.7 -3.3 48.5 0.7 4.4 1.1 5 3.3 5.3 2.2 0.3 2.9 -0.4 5 -5 1.3 -2.9 2.7 -6.4 3.1 -7.8 0.4 -1.4 2.6 -7.7 4.8 -14 2.3 -6.3 5.8 -16.2 7.7 -21.9 2 -5.7 6.4 -17.4 9.8 -26 4 -9.9 7.3 -20.2 9 -28.1 1.5 -6.9 3.4 -13.1 4.1 -13.9 1.2 -1.2 2.5 -0.8 8.9 2.4 4.5 2.3 9.3 5.6 11.6 8.2 3.9 4.2 4 4.5 3.4 9.6 -0.3 2.8 -1 7 -1.6 9.2 -0.5 2.2 -1.2 12.8 -1.5 23.6 -0.5 18.4 -0.4 20 1.7 26.3 1.7 5.3 2.8 7 5.2 8.2 7.7 4 13 -2.4 21.8 -26.1 1.2 -3.3 3.8 -9.8 5.7 -14.5 3.5 -8.3 3.6 -8.6 2.9 -18.5 -0.4 -5.5 -1.1 -11.8 -1.6 -14 -1.2 -5.2 0.2 -6.9 4.9 -6 4.5 0.8 13.2 6.6 16.4 10.8 3.9 5.1 7.6 29.6 9.7 64.7 1.2 19 1.8 24 3 24 0.8 0 4.2 -7.5 8.5 -18.5 1.5 -3.8 3.3 -8.3 4 -10 1.1 -2.6 6.4 -16.1 16.2 -41.5 1.4 -3.6 3.1 -7.8 3.9 -9.5 0.7 -1.6 1.9 -4.7 2.8 -6.7 2.2 -5.4 5.1 -6.9 14 -7 7.4 0 7.6 -0.1 8.2 -2.6 1.9 -7.8 9.6 -18.2 15.1 -20.3 6.3 -2.4 12 -0.4 17.8 6.3 9 10.5 13.3 27.6 11.4 45 -0.6 5.1 -1.7 12.4 -2.4 16.2 -0.8 3.8 -1.2 7.2 -1 7.5 1 0.9 7.8 -2.1 12.5 -5.5 12.2 -8.8 20.9 -25.9 25.5 -50.2 3.5 -19 4.2 -21.2 6.5 -21.2 4.4 0 14.5 6.2 20.3 12.5 2.5 2.6 2.8 3.6 2.3 7 -4 27.6 -5.4 73.1 -2.6 83 1.3 4.2 1.9 5 3.9 5 2.9 0 4.1 -3.5 12.6 -35.5 3.1 -11.8 6.4 -23.7 7.2 -26.5 0.9 -2.7 1.7 -8.5 1.7 -12.9 0.1 -7.4 0.3 -7.9 2.5 -8.8 2.4 -0.9 10.3 0.2 15.1 2 1.4 0.5 3.7 2.2 5.2 3.6 2.1 2.2 2.7 3.8 3.1 8.9 0.2 3.4 1.2 19.1 2.3 35 1.1 17.9 2.2 28.7 2.9 28.7 1.1 0 8.6 -9.9 12.7 -16.9 4.5 -7.6 13.4 -25.3 15.4 -30.6 1 -2.7 2.4 -6.1 3.1 -7.5 0.7 -1.4 1.3 -2.9 1.3 -3.4 0 -0.9 4.1 -10.4 5.9 -13.6 1.3 -2.3 4.1 -2.4 6.2 -0.1 1.4 1.5 1.9 3.5 1.9 7.6 0 3 -0.4 5.5 -0.9 5.5 -0.5 0 -1.1 1 -1.4 2.3 -1.8 7.7 -18.1 46.6 -21.7 51.6 -1.1 1.6 -2 3.4 -2 3.9 0 0.6 -0.3 1.2 -0.7 1.4 -0.5 0.2 -2.4 2.6 -4.3 5.3 -1.9 2.8 -3.9 5.5 -4.5 6.2 -0.5 0.7 -1.4 1.8 -2 2.5 -0.5 0.7 -2.8 3.5 -5 6.2 -4.3 5.4 -5.3 9.5 -5.4 22.6 -0.3 24.5 -7.4 55.5 -17.2 75 -10.9 21.5 -23.4 29.5 -35.3 22.5 -12.1 -7.1 -23.5 -28.3 -23.6 -44 0 -7.1 4.3 -18.1 9.9 -25.4 1.4 -1.8 11.4 -12.2 22.2 -23 l19.7 -19.6 0.6 -8 c0.6 -7.5 -0.6 -38.6 -2 -50.2 -0.6 -5.1 -2.4 -7.5 -2.4 -3.3 0 1.2 -0.6 4.9 -1.4 8.3 -0.8 3.4 -2.2 10.7 -3.1 16.2 -2.6 14.5 -6.1 26.2 -9.1 30.2 -2.5 3.3 -2.9 3.5 -6.7 2.9 -10.9 -1.8 -26.8 -14.5 -31.4 -25.1 -2.3 -5.2 -4.7 -14.7 -5.8 -22.7 -0.4 -3 -1.1 -4.8 -1.9 -4.8 -0.8 0 -3.2 2.4 -5.4 5.4 -7.8 10.2 -17.7 16.3 -28.5 17.3 -5.2 0.5 -5.8 0.8 -6.4 3.2 -1.2 5 -9.1 20.6 -11.9 23.6 -9.8 10.3 -21.9 8.1 -36.4 -6.5 -6.9 -6.9 -7.7 -8.3 -9.7 -15.1 -1.2 -4 -2.5 -8.6 -2.8 -10.1 -0.9 -4.6 -2.9 -3.2 -5.9 4.5 -3.5 8.8 -11 26.4 -14.1 33.2 -1.3 2.8 -3.9 8.7 -5.8 13.1 l-3.5 8.1 -0.5 24.9 c-0.7 35.4 -4.1 59.1 -12.4 85.9 -6.7 22 -20.4 39.5 -30.8 39.5 -1.4 0 -2.5 0.5 -2.5 1 0 0.6 -0.4 1 -1 1 -0.5 0 -1 -0.4 -1 -1z m0.2 -26.1 c6.9 -7.2 11.9 -19.8 16.2 -40.5 3.3 -16 4.2 -25.4 2.4 -25.4 -0.7 0 -3.3 3.2 -5.7 7 -2.4 3.8 -7.1 9.9 -10.5 13.6 -16.3 17.9 -20.1 24.4 -20.1 34.5 0 5.4 0.5 7.2 2.5 10.2 2.6 3.8 3.7 4.4 8.4 4.6 2.2 0.1 3.9 -0.9 6.8 -4z m218.3 -54 c4.9 -5.8 10.5 -18.7 14.7 -33.4 1.9 -6.7 5.7 -24.6 5.8 -27.2 0.1 -3.1 -3.5 -0.6 -12.6 9.1 -18.4 19.4 -22.1 25.4 -23.1 36.7 -0.6 7.6 -0.2 10 2.7 14.7 1.7 2.7 2.5 3.2 5.9 3.2 3.2 0 4.4 -0.6 6.6 -3.1z m-100.6 -112.5 c1.7 -1.4 3.1 -3 3.1 -3.5 0 -0.5 1.1 -2.7 2.5 -4.9 4.5 -7.1 4.4 -9.3 -0.7 -14.2 -5.4 -5.2 -8.8 -9.9 -11.2 -15.5 -3.7 -8.3 -4.5 -5.9 -6.3 17.1 -0.6 8.2 0.8 17.2 3.4 21.4 1.8 3 5.4 2.8 9.2 -0.4z m16.9 -40.6 c4.7 -21.1 5.7 -38.6 2.6 -45.2 -5.5 -11.4 -14.8 -3 -17.6 15.8 -1.8 12.8 0.7 23.1 7.7 31.5 4 4.7 6 4.1 7.3 -2.1z"/><path d="M53.3 242.6 c-10.9 -3.4 -27.8 -17.9 -37 -31.8 -7.1 -10.7 -14.3 -34.1 -14.3 -46.5 0 -2.4 -0.4 -4.3 -1 -4.3 -0.6 0 -1 -8.5 -1 -23.5 0 -15 0.4 -23.5 1 -23.5 0.6 0 1 -2.5 1 -5.5 0 -10.4 7.6 -44.3 13.2 -58.5 2.9 -7.5 12.3 -25.6 14.2 -27.5 0.8 -0.9 2.3 -2.9 3.3 -4.5 1.2 -2.1 2.8 -3.2 5.3 -3.6 1.9 -0.4 5.1 -2.1 7.1 -3.9 16.1 -14.4 44.6 -7.2 60 15.1 5.7 8.4 11.1 21.1 13 30.9 0.4 2.2 1.3 6 2.1 8.5 0.9 3.2 1.3 12.8 1.3 34.5 0 31.1 -0.3 34.1 -5.2 56 -4.1 18.5 -12.8 42.7 -19.5 54.7 -2.2 4 -4.8 8.7 -5.6 10.3 -0.9 1.7 -5.7 7.1 -10.6 12 -7.2 7.1 -10.2 9.4 -14.2 10.8 -6 2 -7.4 2 -13.1 0.3z m9.9 -26.7 c3.6 -2.6 10.5 -13.2 14.2 -21.9 3.8 -9 10.4 -32.7 12.7 -45.5 4.7 -26.2 5.9 -39.3 5.9 -64.5 0 -23.3 -0.2 -26.4 -2.4 -36.1 -2.8 -12.4 -5.3 -17.7 -10.6 -22.9 -4.2 -4.1 -7.9 -5.3 -13.2 -4.1 -6.6 1.5 -7.2 2.9 -3.3 7.5 1.4 1.6 2.5 3.2 2.5 3.5 0 0.4 -1.6 3.1 -3.6 6.1 -4.7 7.2 -10.5 19.3 -14.4 30.5 -2.8 8 -3.1 9.7 -2.5 15.9 1.9 20.4 6.6 33.2 16.4 45.4 5.2 6.4 6.3 10 3.7 12.1 -1.8 1.5 -5.2 -0.1 -14.1 -6.4 -5.8 -4.2 -10.1 -8.5 -13.3 -13.2 -0.8 -1.3 -1.7 -2.3 -2.1 -2.3 -1.1 0 -3.1 13.4 -4.3 28.5 -1.2 16.5 -0.4 37.5 1.8 46 5.3 20 16.1 28.8 26.6 21.4z"/><path d="M301.8 109.6 c-3.2 -1.7 -9.8 -8.8 -11.5 -12.4 -2.4 -5.1 1 -37.3 4.6 -44 1 -1.9 1.7 -2.2 4.9 -1.6 5 0.8 17 6.9 19.9 10 1.3 1.4 2.3 2.6 2.3 2.8 0 0.1 -1.4 4 -3.1 8.7 -1.7 4.6 -4 11.3 -5.1 14.9 -1.1 3.6 -2.6 8 -3.4 9.8 -0.8 1.8 -1.4 3.8 -1.4 4.5 0 2.9 -2.2 8.7 -3.3 8.7 -0.7 0 -2.4 -0.6 -3.9 -1.4z"/><path d="M246.4 105.4 c-4.6 -2.4 -11.3 -9.5 -12.5 -13.3 -1.6 -4.7 -0.4 -18.2 3.3 -38.3 1.2 -6.4 2.6 -7.4 8.6 -6.3 4.2 0.8 12.3 4.7 17 8.3 4.2 3.2 4.1 3.9 -2.5 22.8 -6.5 18.4 -8.3 23.9 -8.3 25.7 0 2.3 -2.4 2.7 -5.6 1.1z"/></g><g fill="#000"><path d="M293.3 221.5 c0 -2.7 0.2 -3.8 0.4 -2.2 0.2 1.5 0.2 3.7 0 5 -0.2 1.2 -0.4 0 -0.4 -2.8z"/><path d="M317.1 218.8 c0.1 -2.4 0.3 -2.7 0.6 -1 0.2 1.2 0.9 2.2 1.4 2.2 0.6 0 0.7 0.5 0.4 1 -1.3 2.1 -2.5 0.9 -2.4 -2.2z"/><path d="M96.4 83.5 c0 -8.2 0.2 -11.5 0.3 -7.2 0.2 4.3 0.2 11 0 15 -0.1 4 -0.3 0.5 -0.3 -7.8z"/><path d="M233.2 82 c0 -1.9 0.2 -2.7 0.5 -1.7 0.2 0.9 0.2 2.5 0 3.5 -0.3 0.9 -0.5 0.1 -0.5 -1.8z"/></g></svg>